<?xml version="1.0" encoding="UTF-8"?>
<svg width="200" height="50" viewBox="0 0 200 50" fill="none" xmlns="http://www.w3.org/2000/svg">
    <rect width="200" height="50" fill="#0033A1"/>
    <path d="M30 15H20V35H30C34.4183 35 38 31.4183 38 27V23C38 18.5817 34.4183 15 30 15Z" fill="white"/>
    <path d="M30 15H20V35H30C34.4183 35 38 31.4183 38 27V23C38 18.5817 34.4183 15 30 15Z" fill="url(#paint0_linear)" fill-opacity="0.5"/>
    <path d="M24 18H28V32H24V18Z" fill="#0033A1"/>
    <path d="M40 18H60V22H40V18Z" fill="white"/>
    <path d="M40 25H55V29H40V25Z" fill="white"/>
    <path d="M40 32H50V36H40V32Z" fill="white"/>
    <defs>
        <linearGradient id="paint0_linear" x1="29" y1="15" x2="29" y2="35" gradientUnits="userSpaceOnUse">
            <stop stop-color="white" stop-opacity="0"/>
            <stop offset="1" stop-color="white" stop-opacity="0.2"/>
        </linearGradient>
    </defs>
</svg>
